<svg xmlns="http://www.w3.org/2000/svg" viewBox="0 0 240 200" fill="none" role="img" aria-label="TASAMI INDUSTRIAL  *3'EJ 'D5F'9J)">
  <g transform="translate(80 0) scale(1)">
    <path d="M40 6L68 30V54L40 74L12 54V30L40 6Z" stroke="#FFFFFF" stroke-width="3.5" fill="none"/>
    <path d="M40 6L68 30H12L40 6Z" fill="#F27C23"/>
    <path d="M12 30L12 54L28 54L28 38H52V54L68 54L68 30" stroke="#FFFFFF" stroke-width="5" stroke-linecap="square" stroke-linejoin="miter" fill="none"/>
    <path d="M40 50V28M40 28L33 35M40 28L47 35" stroke="#FFFFFF" stroke-width="4.5" stroke-linecap="round" stroke-linejoin="round"/>
  </g>
  <text x="120" y="102" text-anchor="middle" font-family="Inter, Arial, sans-serif" font-size="26" font-weight="800" fill="#FFFFFF" letter-spacing="1">TASAMI</text>
  <line x1="52" y1="112" x2="72" y2="112" stroke="#F27C23" stroke-width="1.2"/>
  <text x="120" y="114" text-anchor="middle" font-family="Inter, Arial, sans-serif" font-size="10" font-weight="600" fill="#F27C23" letter-spacing="4">INDUSTRIAL</text>
  <line x1="168" y1="112" x2="188" y2="112" stroke="#F27C23" stroke-width="1.2"/>
  <text x="120" y="142" text-anchor="middle" font-family="Cairo, Arial, sans-serif" font-size="20" font-weight="700" fill="#FFFFFF">*3'EJ 'D5F'9J)</text>
  <line x1="48" y1="158" x2="68" y2="158" stroke="rgba(255,255,255,0.35)" stroke-width="1"/>
  <text x="120" y="162" text-anchor="middle" font-family="Cairo, Arial, sans-serif" font-size="11" font-weight="500" fill="rgba(255,255,255,0.65)">EH'/ · DH,3*J'* · -DHD</text>
  <line x1="172" y1="158" x2="192" y2="158" stroke="rgba(255,255,255,0.35)" stroke-width="1"/>
</svg>
